<?xml version="1.0" standalone="no"?>
<!DOCTYPE svg PUBLIC "-//W3C//DTD SVG 20010904//EN"
 "http://www.w3.org/TR/2001/REC-SVG-20010904/DTD/svg10.dtd">
<svg version="1.0" xmlns="http://www.w3.org/2000/svg"
 width="512.000000pt" height="512.000000pt" viewBox="0 0 512.000000 512.000000"
 preserveAspectRatio="xMidYMid meet">
<metadata>
Created by potrace 1.14, written by Peter Selinger 2001-2017
</metadata>
<g transform="translate(0.000000,512.000000) scale(0.100000,-0.100000)"
fill="#000000" stroke="none">
<path d="M2159 5086 c-104 -53 -188 -113 -269 -195 -91 -91 -143 -176 -175
-285 -20 -69 -23 -98 -20 -191 3 -105 29 -233 52 -256 23 -23 223 112 325 219
102 106 159 209 196 352 2 8 5 62 7 120 2 79 -2 126 -17 188 -11 45 -23 82
-26 82 -4 0 -37 -15 -73 -34z"/>
<path d="M2807 5094 c-294 -80 -453 -236 -504 -494 -7 -36 -9 -177 -2 -184 11
-11 175 37 258 75 153 71 262 171 323 294 45 90 57 137 65 253 l6 82 -29 -1
c-16 0 -69 -11 -117 -25z"/>
<path d="M3210 4864 c-121 -25 -195 -61 -275 -135 -82 -76 -184 -261 -153
-280 38 -24 246 -38 353 -25 153 19 310 114 399 241 48 68 89 152 81 165 -10
16 -151 42 -245 45 -52 1 -124 -4 -160 -11z"/>
<path d="M710 4640 c0 -5 3 -10 8 -10 13 0 147 -132 207 -204 145 -174 241
-366 286 -571 14 -65 18 -312 7 -386 -15 -93 -87 -309 -102 -309 -3 0 -29 14
-57 31 -48 30 -54 31 -127 26 -89 -7 -162 -20 -282 -48 -98 -23 -123 -43 -220
-171 -160 -211 -220 -485 -165 -747 22 -105 28 -112 50 -54 60 161 200 413
330 596 l76 108 63 -83 c172 -228 297 -444 385 -664 22 -54 39 -99 38 -100 -1
-1 -27 4 -57 12 -186 48 -443 69 -614 51 -69 -8 -86 -17 -33 -17 20 0 38 0 40
-1 1 0 22 -5 47 -10 25 -6 56 -13 70 -15 70 -12 231 -74 365 -139 176 -86 277
-150 509 -324 281 -210 543 -382 941 -616 110 -64 205 -121 210 -124 6 -4 31
-15 57 -25 65 -24 173 -102 260 -188 137 -135 222 -264 309 -465 24 -55 81
-145 110 -172 66 -61 93 2 91 205 -3 371 -128 587 -522 904 -131 106 -267 235
-333 320 -29 36 -55 66 -59 68 -5 2 -8 8 -8 14 0 6 -11 26 -25 44 -39 50 -120
220 -149 309 -38 118 -53 219 -52 338 l2 105 -22 -32 c-74 -109 -138 -266
-150 -365 -4 -34 -10 -63 -13 -65 -10 -6 -97 153 -131 238 -109 275 -92 525
51 733 l33 48 -33 -21 c-105 -67 -262 -260 -314 -387 -9 -20 -17 -37 -19 -37
-6 0 -1 303 6 366 14 126 18 152 38 247 49 245 143 461 277 637 27 36 48 67
46 68 -5 5 -189 -117 -240 -157 -22 -18 -59 -51 -82 -72 -24 -22 -43 -38 -43
-36 0 13 43 134 73 204 122 289 307 492 514 569 29 10 33 9 38 -7 11 -34 101
-164 146 -209 118 -122 264 -181 433 -175 112 4 156 14 156 33 0 32 -67 171
-113 235 -86 120 -196 197 -322 226 -64 15 -212 19 -290 9 -194 -26 -389 -113
-540 -239 -64 -54 -169 -163 -205 -213 -18 -25 -36 -46 -39 -46 -4 0 -14 19
-24 41 -52 119 -244 351 -362 435 -22 16 -42 31 -45 34 -30 34 -270 169 -380
215 -36 15 -73 31 -82 36 -12 6 -18 6 -18 -1z"/>
<path d="M3612 4574 c-29 -7 -67 -21 -85 -30 -47 -25 -140 -99 -165 -133 l-22
-30 29 -21 c43 -30 147 -80 200 -95 73 -22 101 -26 181 -25 124 0 223 41 324
131 l58 53 -23 19 c-136 110 -357 169 -497 131z"/>
<path d="M3075 4323 c2 -16 6 -53 10 -83 8 -66 46 -181 82 -247 15 -26 56 -78
92 -114 90 -90 203 -143 347 -163 l31 -4 -3 62 c-19 304 -171 501 -431 560
-40 9 -85 16 -102 16 -26 0 -29 -3 -26 -27z"/>
<path d="M4027 4254 c-68 -13 -217 -77 -217 -94 0 -11 132 -130 144 -130 5 0
17 -7 26 -15 9 -8 47 -26 85 -41 86 -32 205 -40 290 -18 67 18 161 59 171 76
9 14 -107 125 -169 161 -102 60 -220 82 -330 61z"/>
<path d="M3672 4137 c-6 -23 -9 -98 -7 -167 4 -181 48 -297 153 -407 46 -48
158 -130 166 -122 13 13 32 157 30 224 -2 85 -5 104 -24 175 -29 111 -118 228
-224 294 -80 51 -84 51 -94 3z"/>
<path d="M4345 3903 c-67 -11 -126 -26 -131 -34 -8 -14 54 -104 112 -163 113
-113 239 -164 382 -153 89 7 122 13 134 25 10 10 -55 113 -107 171 -50 55
-146 118 -210 136 -51 15 -141 24 -180 18z"/>
<path d="M4095 3788 c-22 -79 -24 -93 -25 -208 -1 -107 14 -171 63 -265 34
-63 145 -185 169 -185 9 0 21 21 32 58 56 190 41 360 -44 492 -32 49 -120 139
-157 158 -19 11 -22 7 -38 -50z"/>
<path d="M4430 3490 c0 -144 74 -325 174 -424 63 -62 174 -127 242 -141 l31
-6 -3 76 c-10 274 -174 488 -411 540 l-33 7 0 -52z"/>
</g>
</svg>
